<svg version="1.1" id="Layer_1" xmlns="http://www.w3.org/2000/svg" xmlns:xlink="http://www.w3.org/1999/xlink" x="0px" y="0px"
	 width="100%" viewBox="0 0 886 886" enable-background="new 0 0 886 886" xml:space="preserve">
<path opacity="0" stroke="none" 
	d="
M887.000000,115.000015 
	C887.000000,372.301300 887.000000,629.602600 887.000000,886.951965 
	C591.735474,886.951965 296.470886,886.951965 1.103173,886.951965 
	C1.103173,591.772217 1.103173,296.544434 1.103173,1.000000 
	C257.695953,1.000000 514.392029,1.000000 771.401367,1.301629 
	C754.797729,18.416491 737.880798,35.229721 720.622253,52.066734 
	C719.446655,52.601963 718.472900,52.973225 717.799072,53.645260 
	C697.769775,73.621315 677.756714,93.613701 657.807373,113.669434 
	C656.843933,114.637962 656.482422,116.205139 655.538879,117.665970 
	C653.539185,119.434563 651.797058,120.986549 650.149536,122.633194 
	C576.724976,196.020584 503.308563,269.416138 429.891541,342.811066 
	C311.222260,461.444580 192.547318,580.072388 73.934250,698.762146 
	C71.909592,700.788086 70.635277,703.563843 68.758652,706.240906 
	C56.096130,739.636719 43.637238,772.763367 31.307419,805.937988 
	C27.959398,814.946106 25.000841,824.099121 21.604549,833.378418 
	C14.866347,850.588867 8.387127,867.606445 1.432001,885.874023 
	C19.114052,879.195557 35.546837,872.988892 52.342918,866.761230 
	C77.494896,857.489929 102.297699,848.277222 127.067154,838.975647 
	C142.781601,833.074463 158.446442,827.041138 174.510162,821.057617 
	C181.365829,819.456970 186.438568,815.901367 191.196198,811.140686 
	C359.065491,643.163757 527.041565,475.293549 694.993530,307.399200 
	C720.096313,282.305084 745.154358,257.166138 770.581665,232.054138 
	C772.285889,231.197784 773.853455,230.548111 774.965698,229.441010 
	C794.389587,210.107590 813.774170,190.734497 833.098572,171.301636 
	C834.290466,170.103058 834.912598,168.337814 835.989990,166.561951 
	C853.120117,149.191803 870.060059,132.095917 887.000000,115.000015 
z"/>
<path opacity="0" stroke="none" 
	d="
M780.000000,1.000000 
	C815.593628,1.000000 851.187195,1.000000 887.000000,1.000000 
	C887.000000,36.353928 887.000000,71.708305 886.671997,107.341324 
	C884.087463,96.446297 879.060120,86.581001 872.082397,77.281784 
	C860.251709,60.243938 846.100342,45.699806 831.003174,32.049500 
	C826.586304,28.055925 821.700134,24.581423 816.889771,20.566013 
	C805.788452,11.384527 793.702759,4.649699 780.000000,1.000000 
z"/>
<path fill="#DA8E8D" opacity="1.000000" stroke="none" 
	d="
M779.555847,1.000000 
	C793.702759,4.649699 805.788452,11.384527 816.863770,20.923519 
	C815.755798,23.117802 814.668762,24.785339 813.293213,26.165237 
	C794.295227,45.222897 775.242310,64.225822 756.262390,83.301414 
	C754.921143,84.649460 754.046936,86.462181 752.660278,87.901886 
	C742.962097,77.674034 733.516052,67.642677 724.202637,57.489616 
	C722.804932,55.965912 722.028015,53.872719 720.963867,52.042953 
	C737.880798,35.229721 754.797729,18.416491 771.857300,1.301629 
	C774.370544,1.000000 776.741150,1.000000 779.555847,1.000000 
z"/>
<path fill="#C85A58" opacity="1.000000" stroke="none" 
	d="
M872.167358,77.596550 
	C879.060120,86.581001 884.087463,96.446297 886.671997,107.809982 
	C887.000000,110.041664 887.000000,112.083336 887.000000,114.562515 
	C870.060059,132.095917 853.120117,149.191803 835.653259,166.566406 
	C826.018677,158.638580 816.911011,150.432053 807.971069,141.909348 
	C829.481689,120.260971 850.824524,98.928764 872.167358,77.596550 
z"/>
<path fill="#FFD269" opacity="1.000000" stroke="none" 
	d="
M69.010818,705.989746 
	C70.635277,703.563843 71.909592,700.788086 73.934250,698.762146 
	C192.547318,580.072388 311.222260,461.444580 429.891541,342.811066 
	C503.308563,269.416138 576.724976,196.020584 650.149536,122.633194 
	C651.797058,120.986549 653.539185,119.434563 655.824097,117.910812 
	C662.305115,124.258423 668.263977,130.474396 674.072327,136.828003 
	C678.512085,141.684586 682.761475,146.715286 686.965942,152.009445 
	C685.711914,153.576950 684.632263,154.848251 683.456787,156.023743 
	C493.978119,345.504700 304.493164,534.979370 114.996033,724.441772 
	C113.711792,725.725769 112.256950,726.839111 110.467232,728.012634 
	C104.832497,727.896240 99.605865,727.592346 94.393753,727.754578 
	C87.815567,727.959290 81.249542,728.864990 74.677658,728.871765 
	C68.528183,728.878113 66.709976,726.801880 67.081558,720.629089 
	C67.376572,715.728333 68.342667,710.868042 69.010818,705.989746 
z"/>
<path fill="#E2B039" opacity="1.000000" stroke="none" 
	d="
M770.233032,232.047943 
	C745.154358,257.166138 720.096313,282.305084 694.993530,307.399200 
	C527.041565,475.293549 359.065491,643.163757 191.196198,811.140686 
	C186.438568,815.901367 181.365829,819.456970 174.045670,821.041748 
	C171.716614,821.022888 170.228638,821.013977 168.740753,820.997314 
	C161.876877,820.920349 161.306824,820.210876 162.960129,813.384521 
	C164.780304,805.869080 166.895676,798.417175 168.449921,790.848816 
	C169.173935,787.323303 168.877151,783.588074 169.034515,779.709839 
	C169.025955,779.471741 169.018173,778.994080 169.317139,778.850586 
	C170.707443,777.679810 171.825333,776.679199 172.886307,775.621521 
	C280.921326,667.915710 388.996857,560.250305 496.968323,452.480774 
	C577.509216,372.090485 657.919434,291.569244 738.351135,211.069687 
	C739.820374,209.599213 740.830383,207.669846 742.357300,206.094818 
	C751.850952,214.839340 761.041992,223.443634 770.233032,232.047943 
z"/>
<path fill="#CCCCCC" opacity="1.000000" stroke="none" 
	d="
M770.581665,232.054138 
	C761.041992,223.443634 751.850952,214.839340 742.200928,205.800476 
	C724.100586,187.791840 706.462036,170.215057 688.802429,152.659363 
	C688.351135,152.210693 687.669678,151.993607 687.095520,151.668518 
	C682.761475,146.715286 678.512085,141.684586 674.072327,136.828003 
	C668.263977,130.474396 662.305115,124.258423 656.125854,117.738380 
	C656.482422,116.205139 656.843933,114.637962 657.807373,113.669434 
	C677.756714,93.613701 697.769775,73.621315 717.799072,53.645260 
	C718.472900,52.973225 719.446655,52.601963 720.622253,52.066734 
	C722.028015,53.872719 722.804932,55.965912 724.202637,57.489616 
	C733.516052,67.642677 742.962097,77.674034 752.830811,88.184441 
	C771.465515,106.491150 789.634399,124.358330 807.803345,142.225525 
	C816.911011,150.432053 826.018677,158.638580 835.463135,166.840668 
	C834.912598,168.337814 834.290466,170.103058 833.098572,171.301636 
	C813.774170,190.734497 794.389587,210.107590 774.965698,229.441010 
	C773.853455,230.548111 772.285889,231.197784 770.581665,232.054138 
z"/>
<path fill="#E7A980" opacity="1.000000" stroke="none" 
	d="
M68.758636,706.240906 
	C68.342667,710.868042 67.376572,715.728333 67.081558,720.629089 
	C66.709976,726.801880 68.528183,728.878113 74.677658,728.871765 
	C81.249542,728.864990 87.815567,727.959290 94.393753,727.754578 
	C99.605865,727.592346 104.832497,727.896240 110.474930,728.256409 
	C110.897186,728.519653 110.882019,729.007996 110.597496,729.171509 
	C108.002472,732.564514 105.646774,735.762634 103.388588,739.028198 
	C84.152985,766.845703 64.981827,794.707947 45.658356,822.464233 
	C42.949825,826.354736 39.520481,829.743469 36.021309,833.404419 
	C31.033056,833.358093 26.448284,833.271851 21.863520,833.185547 
	C25.000841,824.099121 27.959398,814.946106 31.307419,805.937988 
	C43.637238,772.763367 56.096130,739.636719 68.758636,706.240906 
z"/>
<path fill="#CF814C" opacity="1.000000" stroke="none" 
	d="
M169.043045,779.947937 
	C168.877151,783.588074 169.173935,787.323303 168.449921,790.848816 
	C166.895676,798.417175 164.780304,805.869080 162.960129,813.384521 
	C161.306824,820.210876 161.876877,820.920349 168.740753,820.997314 
	C170.228638,821.013977 171.716614,821.022888 173.669037,821.051208 
	C158.446442,827.041138 142.781601,833.074463 127.067154,838.975647 
	C102.297699,848.277222 77.494896,857.489929 52.320538,866.386414 
	C52.505440,864.018250 53.252789,862.034241 53.604076,859.982422 
	C54.098625,857.093872 54.299534,854.155029 55.002205,851.143982 
	C56.441269,850.590454 57.588768,850.264038 58.554672,849.651428 
	C87.096138,831.546265 115.603615,813.387512 144.156052,795.299744 
	C152.389374,790.083984 160.744003,785.059875 169.043045,779.947937 
z"/>
<path fill="#050404" opacity="1.000000" stroke="none" 
	d="
M54.625992,851.237671 
	C54.299534,854.155029 54.098625,857.093872 53.604076,859.982422 
	C53.252789,862.034241 52.505440,864.018250 51.957237,866.407349 
	C35.546837,872.988892 19.114052,879.195557 1.432001,885.874023 
	C8.387127,867.606445 14.866347,850.588867 21.604538,833.378418 
	C26.448284,833.271851 31.033056,833.358093 36.297848,833.682739 
	C37.189548,835.464905 37.711735,837.043335 37.544197,838.544800 
	C37.252232,841.161377 36.627434,843.754028 35.975517,846.314209 
	C34.901512,850.531921 35.989166,852.576477 40.775852,852.048645 
	C45.366535,851.542297 50.007259,851.489685 54.625992,851.237671 
z"/>
<path fill="#D76F6E" opacity="1.000000" stroke="none" 
	d="
M807.971069,141.909348 
	C789.634399,124.358330 771.465515,106.491150 753.126099,88.341408 
	C754.046936,86.462181 754.921143,84.649460 756.262390,83.301414 
	C775.242310,64.225822 794.295227,45.222897 813.293213,26.165237 
	C814.668762,24.785339 815.755798,23.117802 817.003052,21.226513 
	C821.700134,24.581423 826.586304,28.055925 831.003174,32.049500 
	C846.100342,45.699806 860.251709,60.243938 872.082397,77.281792 
	C850.824524,98.928764 829.481689,120.260971 807.971069,141.909348 
z"/>
<path fill="#FFC334" opacity="1.000000" stroke="none" 
	d="
M110.882019,729.007996 
	C110.882019,729.007996 110.897186,728.519653 110.889481,728.275879 
	C112.256950,726.839111 113.711792,725.725769 114.996033,724.441772 
	C304.493164,534.979370 493.978119,345.504700 683.456787,156.023743 
	C684.632263,154.848251 685.711914,153.576950 686.965942,152.009445 
	C687.669678,151.993607 688.351135,152.210693 688.802429,152.659363 
	C706.462036,170.215057 724.100586,187.791840 741.898315,205.660248 
	C740.830383,207.669846 739.820374,209.599213 738.351135,211.069687 
	C657.919434,291.569244 577.509216,372.090485 496.968323,452.480774 
	C388.996857,560.250305 280.921326,667.915710 172.886307,775.621521 
	C171.825333,776.679199 170.707443,777.679810 168.933563,778.691772 
	C161.869324,778.939331 155.468674,778.977356 149.109970,779.513245 
	C136.951889,780.538025 124.834435,782.084290 112.666763,782.939392 
	C106.296562,783.386963 105.037720,781.688904 105.924751,775.377136 
	C107.438683,764.604919 109.349411,753.885254 110.694496,743.093811 
	C111.271721,738.462708 110.849915,733.707031 110.882019,729.007996 
z"/>
<path fill="#E29663" opacity="1.000000" stroke="none" 
	d="
M110.597496,729.171509 
	C110.849915,733.707031 111.271721,738.462708 110.694496,743.093811 
	C109.349411,753.885254 107.438683,764.604919 105.924751,775.377136 
	C105.037720,781.688904 106.296562,783.386963 112.666763,782.939392 
	C124.834435,782.084290 136.951889,780.538025 149.109970,779.513245 
	C155.468674,778.977356 161.869324,778.939331 168.634613,778.835266 
	C169.018173,778.994080 169.025955,779.471741 169.034485,779.709839 
	C160.744003,785.059875 152.389374,790.083984 144.156052,795.299744 
	C115.603615,813.387512 87.096138,831.546265 58.554672,849.651428 
	C57.588768,850.264038 56.441269,850.590454 55.002205,851.143921 
	C50.007259,851.489685 45.366535,851.542297 40.775852,852.048645 
	C35.989166,852.576477 34.901512,850.531921 35.975517,846.314209 
	C36.627434,843.754028 37.252232,841.161377 37.544197,838.544800 
	C37.711735,837.043335 37.189548,835.464905 36.701332,833.642761 
	C39.520481,829.743469 42.949825,826.354736 45.658356,822.464233 
	C64.981827,794.707947 84.152985,766.845703 103.388588,739.028198 
	C105.646774,735.762634 108.002472,732.564514 110.597496,729.171509 
z"/>
</svg>